<svg id="visual" viewBox="0 0 900 600" width="900" height="600" xmlns="http://www.w3.org/2000/svg" xmlns:xlink="http://www.w3.org/1999/xlink" version="1.1"><rect x="0" y="0" width="900" height="600" fill="#140021"></rect><path d="M0 302L129 302L129 271L257 271L257 352L386 352L386 372L514 372L514 279L643 279L643 355L771 355L771 305L900 305L900 300L900 601L900 601L771 601L771 601L643 601L643 601L514 601L514 601L386 601L386 601L257 601L257 601L129 601L129 601L0 601Z" fill="#9900ff"></path><path d="M0 406L129 406L129 465L257 465L257 414L386 414L386 370L514 370L514 450L643 450L643 358L771 358L771 401L900 401L900 419L900 601L900 601L771 601L771 601L643 601L643 601L514 601L514 601L386 601L386 601L257 601L257 601L129 601L129 601L0 601Z" fill="#7700c6"></path><path d="M0 454L129 454L129 450L257 450L257 473L386 473L386 458L514 458L514 499L643 499L643 448L771 448L771 479L900 479L900 535L900 601L900 601L771 601L771 601L643 601L643 601L514 601L514 601L386 601L386 601L257 601L257 601L129 601L129 601L0 601Z" fill="#560090"></path></svg>